Results
version=1
nRows=13
nColumns=38
inDegrees=yes
endheader
time	pelvis_tilt	pelvis_list	pelvis_rotation	pelvis_tx	pelvis_ty	pelvis_tz	hip_flexion_r	hip_adduction_r	hip_rotation_r	knee_angle_r	ankle_angle_r	subtalar_angle_r	mtp_angle_r	hip_flexion_l	hip_adduction_l	hip_rotation_l	knee_angle_l	ankle_angle_l	subtalar_angle_l	mtp_angle_l	lumbar_extension	lumbar_bending	lumbar_rotation	arm_flex_r	arm_add_r	arm_rot_r	elbow_flex_r	pro_sup_r	wrist_flex_r	wrist_dev_r	arm_flex_l	arm_add_l	arm_rot_l	elbow_flex_l	pro_sup_l	wrist_flex_l	wrist_dev_l
      0.00500000	      5.49993188	     -0.97372275	     -2.77087297	     -0.01778031	      0.93998482	      0.01007354	     -6.02364855	     -1.51007437	      0.00020204	     -1.21349682	      0.00021210	      0.00000000	      0.00000000	     -7.06399817	     -3.79763232	      0.00016163	     -0.34483839	      0.00034150	      0.00000000	      0.00000000	    -11.91102422	      3.16081008	      3.27793992	     -2.76622985	     -6.88577787	    -21.75058484	     27.87025403	     97.03138209	      0.00000000	      0.00000000	     -0.94549950	     -8.82971900	     -0.77204279	     32.43201186	    138.32118574	      0.00000000	      0.00000000
      0.01000000	      5.45218887	     -0.97267612	     -2.78799316	     -0.01785556	      0.93995021	      0.01007722	     -5.95126170	     -1.51062493	      0.00019591	     -1.24018598	      0.00027829	      0.00000000	      0.00000000	     -7.00170063	     -3.80202627	      0.00022318	     -0.35232429	      0.00038723	      0.00000000	      0.00000000	    -11.89135941	      3.15315899	      3.31719481	     -2.83902927	     -6.93088945	    -21.35149096	     27.94275027	     97.44803153	      0.00000000	      0.00000000	     -0.92972856	     -8.85797983	     -0.51781509	     32.41815988	    137.93846719	      0.00000000	      0.00000000
      0.01500000	      5.50872189	     -0.95839216	     -2.78052644	     -0.01781428	      0.94001000	      0.01004005	     -6.02455536	     -1.53100662	      0.00020755	     -1.22130084	      0.00024850	      0.00000000	      0.00000000	     -7.06348852	     -3.77598492	      0.00016853	     -0.35838132	      0.00039978	      0.00000000	      0.00000000	    -11.94873841	      3.13422511	      3.31473240	     -2.73776983	     -6.86289477	    -22.04487307	     27.79078315	     97.39432536	      0.00000000	      0.00000000	     -0.92153340	     -8.82571374	     -0.76906858	     32.44355570	    138.12292880	      0.00000000	      0.00000000
      0.02000000	      5.47873074	     -0.98653586	     -2.79672271	     -0.01781351	      0.93997018	      0.01004742	     -5.97874833	     -1.50132550	      0.00017617	     -1.24512870	      0.00025173	      0.00000000	      0.00000000	     -7.04113449	     -3.80748332	      0.00019768	     -0.34325019	      0.00040988	      0.00000000	      0.00000000	    -11.91398406	      3.16330778	      3.32674175	     -2.89160968	     -6.98661233	    -21.07087740	     27.99570811	     98.60810341	      0.00000000	      0.00000000	     -1.00106117	     -8.92106660	     -0.09935291	     32.58789566	    137.13083466	      0.00000000	      0.00000000
      0.02500000	      5.51364703	     -0.96517435	     -2.79154540	     -0.01778139	      0.94001391	      0.01001830	     -6.02383085	     -1.52777181	      0.00021137	     -1.23421032	      0.00020855	      0.00000000	      0.00000000	     -7.07488167	     -3.78387975	      0.00017496	     -0.35352769	      0.00036225	      0.00000000	      0.00000000	    -11.94960637	      3.13596213	      3.31383398	     -2.78973131	     -6.87431669	    -21.76960831	     27.91002800	     96.90204647	      0.00000000	      0.00000000	     -0.91284805	     -8.82638543	     -0.75550634	     32.42725051	    138.19032877	      0.00000000	      0.00000000
      0.03000000	      5.49768069	     -0.97881061	     -2.78646508	     -0.01779447	      0.93997475	      0.00999085	     -5.99995538	     -1.51321944	      0.00022353	     -1.25035794	      0.00025020	      0.00000000	      0.00000000	     -7.04835703	     -3.80133317	      0.00023805	     -0.36990028	      0.00040506	      0.00000000	      0.00000000	    -11.93700701	      3.15533273	      3.30377736	     -2.93577256	     -6.94769655	    -20.97418490	     28.18008115	     96.37643124	      0.00000000	      0.00000000	     -0.97503299	     -8.91544252	     -0.34645606	     32.63220845	    139.00902847	      0.00000000	      0.00000000
      0.03500000	      5.51835130	     -0.96576025	     -2.79444416	     -0.01778068	      0.94001274	      0.00997547	     -6.03082651	     -1.53106928	      0.00020084	     -1.22955951	      0.00026317	      0.00000000	      0.00000000	     -7.07606258	     -3.78254483	      0.00020756	     -0.35807314	      0.00037848	      0.00000000	      0.00000000	    -11.95387746	      3.13945076	      3.30904268	     -2.78197355	     -6.87279128	    -21.80660840	     27.89189273	     97.03748731	      0.00000000	      0.00000000	     -0.92418184	     -8.82980294	     -0.78469849	     32.45414151	    138.30181271	      0.00000000	      0.00000000
      0.04000000	      5.53369083	     -0.99374133	     -2.77461336	     -0.01774092	      0.93999405	      0.00992132	     -6.06021007	     -1.50226530	      0.00021889	     -1.21413386	      0.00026933	      0.00000000	      0.00000000	     -7.10173829	     -3.80564308	      0.00022721	     -0.34968553	      0.00041107	      0.00000000	      0.00000000	    -11.96811367	      3.17372891	      3.28805261	     -2.97600016	     -6.99612687	    -20.83780289	     28.21342020	     98.26502248	      0.00000000	      0.00000000	     -1.01146734	     -8.94133855	     -0.06186487	     32.66131803	    137.92692898	      0.00000000	      0.00000000
      0.04500000	      5.53126515	     -1.00378705	     -2.79757154	     -0.01778077	      0.93999557	      0.00994847	     -6.03887529	     -1.49358855	      0.00022912	     -1.23868354	      0.00031213	      0.00000000	      0.00000000	     -7.09518604	     -3.82173299	      0.00018840	     -0.34641711	      0.00038407	      0.00000000	      0.00000000	    -11.96120002	      3.17452307	      3.30806493	     -3.04362351	     -7.10188582	    -20.18465102	     28.26269521	     99.77309616	      0.00000000	      0.00000000	     -1.00030673	     -8.97462951	      0.35005425	     32.63303775	    136.53307099	      0.00000000	      0.00000000
      0.05000000	      5.55930887	     -0.97859637	     -2.78257888	     -0.01770209	      0.94003666	      0.00989744	     -6.08207698	     -1.52371533	      0.00015389	     -1.22791682	      0.00022154	      0.00000000	      0.00000000	     -7.13319518	     -3.78714242	      0.00024948	     -0.34492073	      0.00034171	      0.00000000	      0.00000000	    -11.98614363	      3.15151638	      3.29018948	     -2.69329153	     -6.84611082	    -22.37079184	     27.69209364	     98.46810719	      0.00000000	      0.00000000	     -0.87821401	     -8.78308257	     -0.93480095	     32.32805560	    137.78001114	      0.00000000	      0.00000000
      0.05500000	      5.59581929	     -0.97769166	     -2.80665166	     -0.01765782	      0.94008542	      0.00990865	     -6.12938892	     -1.53008440	      0.00018820	     -1.21039249	      0.00024835	      0.00000000	      0.00000000	     -7.17996860	     -3.78395132	      0.00022492	     -0.34021690	      0.00036792	      0.00000000	      0.00000000	    -12.02834699	      3.14333826	      3.30424605	     -2.71060456	     -6.85620392	    -22.36260074	     27.75984041	     99.03067566	      0.00000000	      0.00000000	     -0.90311071	     -8.79600014	     -0.87194469	     32.34794305	    137.48934691	      0.00000000	      0.00000000
      0.06000000	      5.53871976	     -0.97612668	     -2.80399094	     -0.01770996	      0.94001623	      0.00988236	     -6.04873088	     -1.53035371	      0.00018486	     -1.24576124	      0.00023156	      0.00000000	      0.00000000	     -7.10700331	     -3.78538766	      0.00024069	     -0.35440494	      0.00042423	      0.00000000	      0.00000000	    -11.96559907	      3.14593054	      3.29237464	     -2.77581710	     -6.87198085	    -21.87649668	     27.87212926	     97.61654170	      0.00000000	      0.00000000	     -0.92186540	     -8.81752506	     -0.86546794	     32.44010394	    138.52533181	      0.00000000	      0.00000000
      0.06500000	      5.51586362	     -0.99521704	     -2.81507881	     -0.01769532	      0.93997604	      0.00987030	     -6.02455389	     -1.51230232	      0.00021942	     -1.24264844	      0.00029688	      0.00000000	      0.00000000	     -7.08612166	     -3.80550700	      0.00018546	     -0.35406049	      0.00041868	      0.00000000	      0.00000000	    -11.93530436	      3.16507529	      3.29936403	     -2.91570681	     -7.00177823	    -21.06555757	     28.03429462	     99.39799542	      0.00000000	      0.00000000	     -0.99835465	     -8.90224448	     -0.15713269	     32.54137096	    136.91966135	      0.00000000	      0.00000000
